#define cb7ad-rzpez_width 204
#define cb7ad-rzpez_height 156
static char cb7ad-rzpez_bits[] = {
  0x00, 0x00, 0x00, 0x00, 0x00, 0x00, 0x00, 0x00, 0x00, 0x00, 0x00, 0x00, 
  0x00, 0x00, 0x00, 0x00, 0x00, 0x00, 0x00, 0x00, 0x00, 0x00, 0x00, 0x00, 
  0x00, 0x00, 0x00, 0x00, 0x00, 0x00, 0x00, 0x00, 0x00, 0x00, 0x00, 0x00, 
  0x00, 0x00, 0x00, 0x00, 0x00, 0x00, 0x00, 0x00, 0x00, 0x00, 0x00, 0x00, 
  0x00, 0x00, 0x00, 0x00, 0x00, 0x00, 0x00, 0x00, 0x00, 0x00, 0x00, 0x00, 
  0x00, 0x00, 0x00, 0x00, 0x00, 0x00, 0x00, 0x00, 0x00, 0x00, 0x00, 0x00, 
  0x00, 0x00, 0x00, 0x00, 0x00, 0x00, 0x00, 0x00, 0x00, 0x00, 0x00, 0x00, 
  0x00, 0x00, 0x00, 0x00, 0x00, 0x00, 0x00, 0x00, 0x00, 0x00, 0x00, 0x00, 
  0x00, 0x00, 0x00, 0x00, 0x00, 0x00, 0x00, 0x00, 0x00, 0x00, 0x00, 0x00, 
  0x00, 0x00, 0x00, 0x00, 0x00, 0x00, 0x00, 0x00, 0x00, 0x00, 0x00, 0x00, 
  0x00, 0x00, 0x00, 0x00, 0x00, 0x00, 0x00, 0x00, 0x00, 0x00, 0x00, 0x00, 
  0x00, 0x00, 0x00, 0x00, 0x00, 0x00, 0x00, 0x00, 0x00, 0x00, 0x00, 0x00, 
  0x00, 0x00, 0x00, 0x00, 0x00, 0x00, 0x00, 0x00, 0x00, 0x00, 0x00, 0x00, 
  0x00, 0x00, 0x00, 0x00, 0x00, 0x00, 0x00, 0x00, 0x00, 0x00, 0x00, 0x00, 
  0x00, 0x00, 0x00, 0x00, 0x00, 0x00, 0x00, 0x00, 0x00, 0x00, 0x00, 0x00, 
  0x00, 0x00, 0x00, 0x00, 0x00, 0x00, 0x00, 0x00, 0x00, 0x00, 0x00, 0x00, 
  0x00, 0x00, 0x00, 0x00, 0x00, 0x00, 0x00, 0x00, 0x00, 0x00, 0x00, 0x00, 
  0x00, 0x00, 0x00, 0x00, 0x00, 0x00, 0x00, 0x00, 0x00, 0x00, 0x00, 0x00, 
  0x00, 0x00, 0x00, 0x00, 0x00, 0x00, 0x00, 0x00, 0x00, 0x00, 0x00, 0x00, 
  0x00, 0x00, 0x00, 0x00, 0x00, 0x00, 0x00, 0x00, 0x00, 0x00, 0x00, 0x00, 
  0x00, 0x00, 0x00, 0x00, 0x00, 0x00, 0x00, 0x00, 0x00, 0x00, 0x00, 0x00, 
  0x00, 0x00, 0x00, 0x00, 0x00, 0x00, 0x00, 0x00, 0x00, 0x00, 0x00, 0x00, 
  0x00, 0x00, 0x00, 0x00, 0x00, 0x00, 0x00, 0x00, 0x00, 0x00, 0x00, 0x00, 
  0x00, 0x00, 0x00, 0x00, 0x00, 0x00, 0x00, 0x00, 0x00, 0x00, 0x00, 0x00, 
  0x00, 0x00, 0x00, 0x00, 0x00, 0x00, 0x00, 0x00, 0x00, 0x00, 0x00, 0x00, 
  0x00, 0x00, 0x00, 0x00, 0x00, 0x00, 0x00, 0x00, 0x00, 0x00, 0x00, 0x00, 
  0x00, 0x00, 0x00, 0x00, 0x00, 0x00, 0x00, 0x00, 0x00, 0x00, 0x00, 0x00, 
  0x28, 0x00, 0x00, 0x00, 0x00, 0x00, 0x00, 0x00, 0x00, 0x00, 0x00, 0x00, 
  0x00, 0x00, 0x00, 0x00, 0x00, 0x00, 0x00, 0x00, 0x00, 0x00, 0x00, 0x00, 
  0x00, 0x10, 0x41, 0x70, 0x00, 0x00, 0x00, 0x00, 0x00, 0x00, 0x00, 0x00, 
  0x00, 0x00, 0x00, 0x00, 0x00, 0x00, 0x00, 0x00, 0x00, 0x00, 0x00, 0x00, 
  0x00, 0x00, 0x80, 0xA8, 0x24, 0xAA, 0x09, 0x00, 0x00, 0x00, 0x00, 0x00, 
  0x00, 0x00, 0x00, 0x00, 0x00, 0x00, 0x00, 0x00, 0x00, 0x00, 0x00, 0x00, 
  0x00, 0x00, 0x00, 0x00, 0x08, 0x53, 0x9A, 0x19, 0x12, 0x00, 0x00, 0x00, 
  0x00, 0x00, 0x00, 0x00, 0x00, 0x00, 0x00, 0x00, 0x00, 0x00, 0x00, 0x00, 
  0x00, 0x00, 0x00, 0x00, 0x00, 0x00, 0x28, 0x5C, 0x21, 0x7B, 0x17, 0x02, 
  0x00, 0x00, 0x00, 0x00, 0x00, 0x00, 0x00, 0x00, 0x00, 0x00, 0x00, 0x00, 
  0x00, 0x00, 0x00, 0x00, 0x00, 0x00, 0x00, 0x80, 0x85, 0xA1, 0x4C, 0x30, 
  0x90, 0x14, 0x00, 0x00, 0x00, 0x00, 0x00, 0x00, 0x00, 0x00, 0x00, 0x00, 
  0x00, 0x00, 0x00, 0x00, 0x00, 0x00, 0x00, 0x00, 0x00, 0x00, 0x04, 0x25, 
  0x02, 0x7C, 0x19, 0xE0, 0x00, 0x00, 0x00, 0x00, 0x00, 0x00, 0x00, 0x00, 
  0x00, 0x00, 0x00, 0x00, 0x00, 0x00, 0x00, 0x00, 0x00, 0x00, 0x00, 0x78, 
  0xC1, 0x10, 0xA4, 0x3A, 0x68, 0xFF, 0x00, 0x00, 0x00, 0x00, 0x00, 0x00, 
  0x00, 0x00, 0x00, 0x00, 0x00, 0x00, 0x00, 0x00, 0x00, 0x00, 0x00, 0x00, 
  0x00, 0x1C, 0x51, 0x61, 0x1A, 0xB8, 0x99, 0xFB, 0x01, 0x00, 0x00, 0x00, 
  0x00, 0x00, 0x00, 0x00, 0x00, 0x00, 0x00, 0x00, 0x00, 0x00, 0x00, 0x00, 
  0x00, 0x00, 0x00, 0xF8, 0x6B, 0x08, 0x98, 0x18, 0x56, 0x74, 0x00, 0x00, 
  0x00, 0x00, 0x00, 0x00, 0x00, 0x00, 0x00, 0x00, 0x00, 0x00, 0x00, 0x00, 
  0x00, 0x00, 0x00, 0x00, 0x80, 0xBA, 0x86, 0xA1, 0x49, 0x59, 0x4C, 0x7C, 
  0x14, 0x00, 0x00, 0x00, 0x00, 0x00, 0x00, 0x00, 0x00, 0x00, 0x00, 0x00, 
  0x00, 0x00, 0x00, 0x00, 0x00, 0x00, 0x00, 0x71, 0x30, 0x0A, 0x93, 0x9C, 
  0x31, 0xBE, 0x49, 0x00, 0x00, 0x00, 0x00, 0x00, 0x00, 0x00, 0x00, 0x00, 
  0x00, 0x00, 0x00, 0x00, 0x00, 0x00, 0x00, 0x00, 0x90, 0x22, 0x18, 0xC4, 
  0x88, 0x1D, 0x68, 0x3C, 0x92, 0x00, 0x00, 0x00, 0x00, 0x00, 0x00, 0x00, 
  0x00, 0x00, 0x00, 0x00, 0x00, 0x00, 0x00, 0x00, 0x00, 0x00, 0x60, 0x7D, 
  0x81, 0x95, 0x9A, 0x44, 0x21, 0xDE, 0x80, 0x00, 0x00, 0x00, 0x00, 0x00, 
  0x00, 0x00, 0x00, 0x00, 0x00, 0x00, 0x00, 0x00, 0x00, 0x00, 0x00, 0x00, 
  0x12, 0x6A, 0x26, 0x20, 0x52, 0x24, 0x11, 0x0F, 0x52, 0x02, 0x00, 0x00, 
  0x00, 0x00, 0x00, 0x00, 0x00, 0x00, 0x00, 0x00, 0x00, 0x00, 0x00, 0x00, 
  0x00, 0x00, 0xC8, 0xD1, 0x56, 0x45, 0x40, 0xDC, 0x6A, 0x4E, 0x26, 0x00, 
  0x00, 0x00, 0x00, 0x00, 0x00, 0x00, 0x00, 0x00, 0x00, 0x00, 0x00, 0x00, 
  0x00, 0x00, 0x00, 0x00, 0x09, 0x52, 0x24, 0x86, 0x41, 0x06, 0xE5, 0x07, 
  0x09, 0x0C, 0x00, 0x00, 0x00, 0x00, 0x00, 0x00, 0x00, 0x00, 0x00, 0x00, 
  0x00, 0x00, 0x00, 0x00, 0x00, 0xC0, 0x65, 0x94, 0x4A, 0x80, 0xA4, 0xD1, 
  0x26, 0xAB, 0x20, 0x1E, 0x00, 0x00, 0x00, 0x00, 0x00, 0x00, 0x00, 0x00, 
  0x00, 0x00, 0x00, 0x00, 0x00, 0x00, 0x00, 0x80, 0xB3, 0x65, 0x40, 0xC8, 
  0x09, 0x16, 0x85, 0x53, 0xD2, 0x1F, 0x00, 0x00, 0x00, 0x00, 0x00, 0x00, 
  0x00, 0x00, 0x00, 0x00, 0x00, 0x00, 0x00, 0x00, 0x00, 0x90, 0x0B, 0x88, 
  0x31, 0x75, 0xB9, 0x51, 0xD8, 0x47, 0xD2, 0x3F, 0x00, 0x00, 0x00, 0x00, 
  0x00, 0x00, 0x00, 0x00, 0x00, 0x00, 0x00, 0x00, 0x00, 0x00, 0x00, 0xC0, 
  0x85, 0x1A, 0x80, 0xF0, 0x94, 0x0A, 0xD8, 0x13, 0xC2, 0x1F, 0x00, 0x00, 
  0x00, 0x00, 0x00, 0x00, 0x00, 0x00, 0x00, 0x00, 0x00, 0x00, 0x00, 0x00, 
  0x00, 0x00, 0x16, 0xA1, 0x23, 0x3A, 0x03, 0x6A, 0xE3, 0xA4, 0xE1, 0x63, 
  0x02, 0x00, 0x00, 0x00, 0x00, 0x00, 0x00, 0x00, 0x00, 0x00, 0x00, 0x00, 
  0x00, 0x00, 0x00, 0x6C, 0x1E, 0x08, 0x29, 0xE1, 0x44, 0x51, 0x6A, 0x4E, 
  0xE1, 0x89, 0x02, 0x00, 0x00, 0x00, 0x00, 0x00, 0x00, 0x00, 0x00, 0x00, 
  0x00, 0x00, 0x00, 0x00, 0x00, 0x14, 0x08, 0x92, 0x42, 0xF0, 0x37, 0x84, 
  0x71, 0xB0, 0xF4, 0x31, 0x00, 0x00, 0x00, 0x00, 0x00, 0x00, 0x00, 0x00, 
  0x00, 0x00, 0x00, 0x00, 0x00, 0x00, 0x00, 0x84, 0x98, 0x98, 0x12, 0xBC, 
  0x05, 0x0A, 0x34, 0x82, 0xF9, 0x10, 0x04, 0x00, 0x00, 0x00, 0x00, 0x00, 
  0x00, 0x00, 0x00, 0x00, 0x00, 0x00, 0x00, 0x00, 0x00, 0xA2, 0x25, 0x06, 
  0x85, 0xF8, 0x9F, 0xE4, 0xB9, 0x28, 0x3C, 0xE0, 0x03, 0x00, 0x00, 0x00, 
  0x00, 0x00, 0x00, 0x00, 0x00, 0x00, 0x00, 0x00, 0x00, 0x00, 0x80, 0x22, 
  0x61, 0x70, 0x94, 0x6C, 0x5E, 0x16, 0x18, 0xA2, 0x3C, 0x4D, 0x19, 0x00, 
  0x00, 0x00, 0x00, 0x00, 0x00, 0x00, 0x00, 0x00, 0x00, 0x00, 0x00, 0x00, 
  0xC0, 0x89, 0x63, 0x05, 0x08, 0xFA, 0x0F, 0x11, 0x19, 0x19, 0x5F, 0x04, 
  0x02, 0x00, 0x00, 0x00, 0x00, 0x00, 0x00, 0x00, 0x00, 0x00, 0x00, 0x00, 
  0x00, 0x00, 0xC0, 0x05, 0xC8, 0x22, 0x8A, 0xE7, 0x27, 0x95, 0x9E, 0x90, 
  0x87, 0x92, 0x13, 0x00, 0x00, 0x00, 0x00, 0x00, 0x00, 0x00, 0x00, 0x00, 
  0x00, 0x00, 0x00, 0x00, 0x80, 0xBB, 0x81, 0x61, 0x94, 0xA9, 0x6C, 0x02, 
  0xC4, 0x01, 0x07, 0x4C, 0x64, 0x00, 0x00, 0x00, 0x00, 0x00, 0x00, 0x00, 
  0x00, 0x00, 0x00, 0x00, 0x00, 0x00, 0x80, 0x06, 0xA4, 0x56, 0x92, 0xD6, 
  0xA8, 0x65, 0x06, 0xC0, 0x33, 0x46, 0x80, 0x00, 0x00, 0x00, 0x00, 0x00, 
  0x00, 0x00, 0x00, 0x00, 0x00, 0x00, 0x00, 0x00, 0x00, 0x24, 0x48, 0x01, 
  0x96, 0x6F, 0xD7, 0xC4, 0x83, 0xDA, 0x4C, 0x90, 0xFB, 0x00, 0x00, 0x00, 
  0x00, 0x00, 0x00, 0x00, 0x00, 0x00, 0x00, 0x00, 0x00, 0x00, 0x10, 0x8C, 
  0x48, 0x41, 0xC0, 0xAB, 0x5A, 0x49, 0x49, 0xC1, 0x81, 0x09, 0x78, 0x00, 
  0x00, 0x00, 0x00, 0x00, 0x00, 0x00, 0x00, 0x00, 0x00, 0x00, 0x00, 0x00, 
  0x40, 0x39, 0x90, 0x1E, 0x4D, 0xDE, 0xB5, 0x81, 0x00, 0x68, 0x38, 0x90, 
  0x0E, 0x00, 0x00, 0x00, 0x00, 0x00, 0x00, 0x00, 0x00, 0x00, 0x00, 0x00, 
  0x00, 0x00, 0x48, 0x12, 0x55, 0x09, 0xC1, 0x9D, 0xAB, 0x1C, 0xA1, 0x31, 
  0x05, 0x02, 0x1F, 0x01, 0x00, 0x00, 0x00, 0x00, 0x00, 0x00, 0x00, 0x00, 
  0x00, 0x00, 0x00, 0x00, 0x00, 0xE0, 0x02, 0x52, 0xA4, 0xF3, 0x75, 0x61, 
  0x44, 0x10, 0x68, 0xD8, 0xA5, 0x02, 0x00, 0x00, 0x00, 0x00, 0x00, 0x00, 
  0x00, 0x00, 0x00, 0x00, 0x00, 0x00, 0x40, 0x44, 0x10, 0x2B, 0xD4, 0xFF, 
  0x9F, 0x45, 0x09, 0x09, 0x84, 0xC0, 0x80, 0x01, 0x00, 0x00, 0x00, 0x00, 
  0x00, 0x00, 0x00, 0x00, 0x00, 0x00, 0x00, 0x00, 0x00, 0x10, 0x2F, 0x04, 
  0x18, 0xA6, 0xD4, 0x1B, 0x90, 0x81, 0x00, 0x66, 0xC6, 0x05, 0x00, 0x00, 
  0x00, 0x00, 0x00, 0x00, 0x00, 0x00, 0x00, 0x00, 0x00, 0x00, 0x50, 0x00, 
  0x02, 0x40, 0xB0, 0xF7, 0xD7, 0x40, 0x08, 0x82, 0xB5, 0x14, 0x59, 0x04, 
  0x00, 0x00, 0x00, 0x00, 0x00, 0x00, 0x00, 0x00, 0x00, 0x00, 0x00, 0x00, 
  0x46, 0x61, 0x90, 0x21, 0xDC, 0xFD, 0xAD, 0x2B, 0x40, 0x48, 0x00, 0x45, 
  0x16, 0x02, 0x00, 0x00, 0x00, 0x00, 0x00, 0x00, 0x00, 0x00, 0x00, 0x00, 
  0x00, 0x00, 0x48, 0x09, 0x09, 0x00, 0xEC, 0xFE, 0x7C, 0xAB, 0x06, 0x40, 
  0x00, 0x88, 0x1B, 0x02, 0x00, 0x00, 0x00, 0x00, 0x00, 0x00, 0x00, 0x00, 
  0x00, 0x00, 0x00, 0x00, 0x01, 0xD0, 0x15, 0xA0, 0xFE, 0xFF, 0xF7, 0x05, 
  0x00, 0x00, 0x00, 0x53, 0xE2, 0x09, 0x00, 0x00, 0x00, 0x00, 0x00, 0x00, 
  0x00, 0x00, 0x00, 0x00, 0x00, 0x00, 0x00, 0x00, 0x00, 0x00, 0xFE, 0xDB, 
  0x9F, 0x26, 0x00, 0xA8, 0x96, 0xBB, 0xEB, 0x19, 0x00, 0x00, 0x00, 0x00, 
  0x00, 0x00, 0x00, 0x00, 0x00, 0x00, 0x00, 0x80, 0x82, 0x00, 0x20, 0x52, 
  0x72, 0xBA, 0xE7, 0xEA, 0xFF, 0x5B, 0xDE, 0x87, 0x99, 0x04, 0x00, 0x00, 
  0x00, 0x00, 0x00, 0x00, 0x00, 0x00, 0x00, 0x00, 0x00, 0x00, 0x55, 0x29, 
  0x69, 0x77, 0x69, 0xFF, 0x4E, 0xF8, 0xDD, 0x7D, 0xEE, 0x8B, 0x2A, 0x16, 
  0x00, 0x00, 0x00, 0x00, 0x00, 0x00, 0x00, 0x00, 0x00, 0x00, 0x00, 0x00, 
  0xE8, 0xF9, 0xFF, 0xD9, 0x47, 0xA8, 0xBA, 0x5D, 0xB6, 0x67, 0xFB, 0x57, 
  0x5E, 0x28, 0x00, 0x00, 0x00, 0x00, 0x00, 0x00, 0x00, 0x00, 0x00, 0x00, 
  0x00, 0x00, 0xA4, 0x77, 0xF5, 0x25, 0xDA, 0x73, 0xDF, 0xCF, 0xA3, 0x7D, 
  0xF9, 0xA7, 0x12, 0x36, 0x00, 0x00, 0x00, 0x00, 0x00, 0x00, 0x00, 0x00, 
  0x00, 0x00, 0x00, 0x40, 0xD2, 0xED, 0x6F, 0xFC, 0xBB, 0xCD, 0xFE, 0xF3, 
  0xD9, 0xE3, 0xEC, 0x4F, 0xB9, 0x18, 0x00, 0x00, 0x00, 0x00, 0x00, 0x00, 
  0x00, 0x00, 0x00, 0x00, 0x00, 0x80, 0x92, 0xDD, 0x26, 0x3D, 0x7E, 0xEF, 
  0x7A, 0x7D, 0x1F, 0x66, 0xFB, 0x2F, 0x09, 0x3F, 0x00, 0x00, 0x00, 0x00, 
  0x00, 0x00, 0x00, 0x00, 0x00, 0x00, 0x00, 0x40, 0x64, 0x3B, 0xFF, 0xE3, 
  0xB7, 0x79, 0x5D, 0xC9, 0xDF, 0xDF, 0xFF, 0xEF, 0xE3, 0x4F, 0x00, 0x00, 
  0x00, 0x00, 0x00, 0x00, 0x00, 0x00, 0x00, 0x00, 0x00, 0x00, 0xA0, 0xF3, 
  0x9F, 0xAB, 0xE9, 0xFD, 0x7F, 0xFA, 0xF7, 0x77, 0xFD, 0x9F, 0xF8, 0x63, 
  0x00, 0x00, 0x00, 0x00, 0x00, 0x00, 0x00, 0x00, 0x00, 0x00, 0x00, 0x40, 
  0x94, 0xEC, 0x5D, 0x9F, 0x15, 0x67, 0xF6, 0xEF, 0x5D, 0xCD, 0xFF, 0x4F, 
  0xFF, 0x22, 0x00, 0x00, 0x00, 0x00, 0x00, 0x00, 0x00, 0x00, 0x00, 0x00, 
  0x00, 0x80, 0x18, 0x59, 0xF6, 0xFF, 0xFF, 0xFF, 0xFF, 0x9E, 0xFF, 0x3F, 
  0xFF, 0xE7, 0x8F, 0x10, 0x00, 0x00, 0x00, 0x00, 0x00, 0x00, 0x00, 0x00, 
  0x00, 0x00, 0x00, 0x30, 0xD3, 0x9E, 0xF9, 0xFF, 0xFF, 0xFF, 0xFF, 0x77, 
  0xFD, 0xB9, 0xFF, 0xFF, 0x21, 0xFE, 0x00, 0x00, 0x00, 0x00, 0x00, 0x00, 
  0x00, 0x00, 0x00, 0x00, 0x00, 0xF0, 0x40, 0x6F, 0xEE, 0xFF, 0xFB, 0xFF, 
  0xFF, 0xFF, 0xB9, 0xE3, 0xFF, 0x5F, 0x7A, 0xA5, 0x00, 0x00, 0x00, 0x00, 
  0x00, 0x00, 0x00, 0x00, 0x00, 0x00, 0x00, 0xF0, 0x0F, 0xA8, 0xF7, 0x5B, 
  0xFC, 0xFF, 0xFF, 0xEC, 0x5B, 0xDD, 0xFF, 0xC5, 0x42, 0x5D, 0x00, 0x00, 
  0x00, 0x00, 0x00, 0x00, 0x00, 0x00, 0x00, 0x00, 0x00, 0x80, 0xBF, 0xE8, 
  0xDE, 0xF4, 0xFF, 0xFF, 0xFF, 0x6C, 0x98, 0xDB, 0xFF, 0x2D, 0x44, 0xB5, 
  0x00, 0x00, 0x00, 0x00, 0x00, 0x00, 0x00, 0x00, 0x00, 0x00, 0x00, 0x00, 
  0x70, 0x15, 0xF0, 0x6B, 0xF9, 0xFF, 0xFF, 0xB7, 0xDD, 0xEA, 0xFF, 0x4A, 
  0x13, 0xC7, 0x00, 0x00, 0x00, 0x00, 0x00, 0x00, 0x00, 0x00, 0x00, 0x00, 
  0x00, 0x90, 0x80, 0x59, 0xCB, 0x66, 0xFD, 0xFF, 0xFF, 0xD1, 0x3C, 0xF5, 
  0x7F, 0x1C, 0x5A, 0x68, 0x00, 0x00, 0x00, 0x00, 0x00, 0x00, 0x00, 0x00, 
  0x00, 0x00, 0x00, 0x00, 0x40, 0xC0, 0xE2, 0x76, 0xFF, 0xFF, 0xCF, 0xBE, 
  0xDF, 0xFB, 0x7F, 0xE3, 0xA4, 0x85, 0x00, 0x00, 0x00, 0x00, 0x00, 0x00, 
  0x00, 0x00, 0x00, 0x00, 0x00, 0x10, 0x15, 0x6D, 0x7A, 0xBB, 0x7F, 0x36, 
  0x8B, 0xDE, 0x57, 0xED, 0xFF, 0x66, 0x25, 0x02, 0x00, 0x00, 0x00, 0x00, 
  0x00, 0x00, 0x00, 0x00, 0x00, 0x00, 0x00, 0x10, 0xA0, 0x82, 0xBD, 0x65, 
  0xFF, 0xC1, 0x59, 0x39, 0x4F, 0xFE, 0xBF, 0x92, 0x69, 0x5D, 0x00, 0x00, 
  0x00, 0x00, 0x00, 0x00, 0x00, 0x00, 0x00, 0x00, 0x00, 0xA8, 0x10, 0xC1, 
  0xB6, 0xA5, 0xFF, 0xAE, 0x65, 0x1A, 0xF7, 0xFE, 0x1F, 0x0B, 0x9A, 0xFA, 
  0x00, 0x00, 0x00, 0x00, 0x00, 0x00, 0x00, 0x00, 0x00, 0x00, 0x00, 0x00, 
  0x05, 0x94, 0xBE, 0xBA, 0xFF, 0x08, 0xAA, 0xB3, 0x9B, 0xF2, 0x6F, 0x64, 
  0xA4, 0xE4, 0x01, 0x00, 0x00, 0x00, 0x00, 0x00, 0x00, 0x00, 0x00, 0x00, 
  0x00, 0x90, 0x04, 0x98, 0xFC, 0xD8, 0xFF, 0xDB, 0x05, 0xF0, 0x55, 0xFC, 
  0x23, 0x44, 0xFF, 0xFF, 0x01, 0x00, 0x00, 0x00, 0x00, 0x00, 0x00, 0x00, 
  0x00, 0x00, 0x00, 0x00, 0x11, 0x29, 0x2D, 0x9A, 0x7F, 0xA0, 0xE9, 0xD5, 
  0xFB, 0xFE, 0xE7, 0xFF, 0xFF, 0xFF, 0x01, 0x00, 0x00, 0x00, 0x00, 0x00, 
  0x00, 0x00, 0x00, 0x00, 0x00, 0x50, 0x80, 0x00, 0x8E, 0xF3, 0x7F, 0x54, 
  0x60, 0xC4, 0xA6, 0xFF, 0xFB, 0xFF, 0xDD, 0xDB, 0x00, 0x00, 0x00, 0x00, 
  0x00, 0x00, 0x00, 0x00, 0x00, 0x00, 0x00, 0xF8, 0xFF, 0x67, 0xD4, 0xFE, 
  0x9F, 0xA7, 0xA5, 0xAA, 0xFC, 0xFD, 0x03, 0x02, 0x28, 0x21, 0x00, 0x00, 
  0x00, 0x00, 0x00, 0x00, 0x00, 0x00, 0x00, 0x00, 0x00, 0x68, 0x6B, 0x1A, 
  0xD8, 0xF6, 0xCF, 0x60, 0x45, 0x2E, 0xBF, 0xFD, 0x0C, 0x03, 0x28, 0x4B, 
  0x01, 0x00, 0x00, 0x00, 0x00, 0x00, 0x00, 0x00, 0x00, 0x00, 0x00, 0x00, 
  0x00, 0x41, 0xE1, 0xFA, 0x6F, 0x89, 0x3B, 0x01, 0xF7, 0xFF, 0xD0, 0x58, 
  0xC3, 0x34, 0x00, 0x00, 0x00, 0x00, 0x00, 0x00, 0x00, 0x00, 0x00, 0x00, 
  0x00, 0x00, 0xC8, 0x25, 0x6C, 0x7E, 0x27, 0x59, 0x98, 0xA4, 0x77, 0x77, 
  0x20, 0x04, 0x9A, 0xA6, 0x00, 0x00, 0x00, 0x00, 0x00, 0x00, 0x00, 0x00, 
  0x00, 0x00, 0x00, 0x00, 0x22, 0x28, 0xBC, 0xBB, 0x5F, 0x84, 0xAA, 0xCA, 
  0xDF, 0xBF, 0x8D, 0x93, 0xA9, 0x69, 0x01, 0x00, 0x00, 0x00, 0x00, 0x00, 
  0x00, 0x00, 0x00, 0x00, 0x00, 0x80, 0x10, 0x50, 0x68, 0xDE, 0x25, 0x21, 
  0x14, 0xC2, 0xEE, 0xCB, 0x14, 0x04, 0xB4, 0x63, 0x00, 0x00, 0x00, 0x00, 
  0x00, 0x00, 0x00, 0x00, 0x00, 0x00, 0x00, 0x20, 0x48, 0x00, 0xDE, 0xBF, 
  0x82, 0xDC, 0x95, 0x54, 0xEF, 0xAD, 0xA4, 0x62, 0x2A, 0x99, 0x00, 0x00, 
  0x00, 0x00, 0x00, 0x00, 0x00, 0x00, 0x00, 0x00, 0x00, 0x60, 0x12, 0x19, 
  0x6A, 0x7E, 0x6D, 0x8A, 0xC1, 0x70, 0xFE, 0xA7, 0x0A, 0xF8, 0x52, 0xA2, 
  0x00, 0x00, 0x00, 0x00, 0x00, 0x00, 0x00, 0x00, 0x00, 0x00, 0x00, 0x00, 
  0x16, 0x08, 0xCC, 0xBF, 0x5B, 0x82, 0x1A, 0xA0, 0xD1, 0x67, 0xB3, 0x01, 
  0x29, 0x58, 0x00, 0x00, 0x00, 0x00, 0x00, 0x00, 0x00, 0x00, 0x00, 0x00, 
  0x00, 0x40, 0x08, 0x20, 0x3D, 0x5F, 0x46, 0x44, 0x01, 0x72, 0x76, 0x49, 
  0xF1, 0x6F, 0x24, 0xA4, 0x00, 0x00, 0x00, 0x00, 0x00, 0x00, 0x00, 0x00, 
  0x00, 0x00, 0x00, 0x00, 0x24, 0x8C, 0xB5, 0xFF, 0xBD, 0x11, 0x59, 0xD0, 
  0x7D, 0xFF, 0x05, 0xFD, 0x2E, 0x49, 0x00, 0x00, 0x00, 0x00, 0x00, 0x00, 
  0x00, 0x00, 0x00, 0x00, 0x00, 0x40, 0x5E, 0x96, 0x06, 0xDB, 0x59, 0x95, 
  0x00, 0x58, 0xBD, 0xAB, 0x37, 0xF4, 0xFF, 0xDB, 0x00, 0x00, 0x00, 0x00, 
  0x00, 0x00, 0x00, 0x00, 0x00, 0x00, 0x00, 0xC0, 0x23, 0x80, 0xDD, 0x7B, 
  0xDB, 0x08, 0x25, 0xE8, 0xF9, 0x76, 0x1C, 0x82, 0xFF, 0x1F, 0x00, 0x00, 
  0x00, 0x00, 0x00, 0x00, 0x00, 0x00, 0x00, 0x00, 0x00, 0x70, 0x19, 0xC1, 
  0xDE, 0x9F, 0x5F, 0x92, 0x21, 0xFC, 0xFF, 0xD1, 0x14, 0xDA, 0xF4, 0x3F, 
  0x00, 0x00, 0x00, 0x00, 0x00, 0x00, 0x00, 0x00, 0x00, 0x00, 0x00, 0x00, 
  0x20, 0x90, 0xD2, 0x73, 0x2A, 0x00, 0x80, 0xFE, 0x7F, 0xFE, 0x67, 0x01, 
  0x03, 0x4E, 0x00, 0x00, 0x00, 0x00, 0x00, 0x00, 0x00, 0x00, 0x00, 0x00, 
  0x00, 0x00, 0x02, 0xF0, 0xDB, 0xEF, 0xB3, 0x00, 0x00, 0x04, 0x0C, 0x9B, 
  0x7E, 0x25, 0x18, 0x44, 0x00, 0x00, 0x00, 0x00, 0x00, 0x00, 0x00, 0x00, 
  0x00, 0x00, 0x00, 0x40, 0x40, 0x88, 0x2C, 0x9D, 0x5E, 0xCD, 0xEF, 0xEB, 
  0xFF, 0xB5, 0x53, 0xA4, 0xA8, 0x22, 0x00, 0x00, 0x00, 0x00, 0x00, 0x00, 
  0x00, 0x00, 0x00, 0x00, 0x00, 0x00, 0x8A, 0x18, 0x55, 0xB6, 0x9E, 0xD9, 
  0xEF, 0xC3, 0xB5, 0xDD, 0x65, 0x34, 0x99, 0x22, 0x00, 0x00, 0x00, 0x00, 
  0x00, 0x00, 0x00, 0x00, 0x00, 0x00, 0x00, 0x00, 0x01, 0x78, 0xEA, 0x3A, 
  0x75, 0x47, 0x9E, 0x7D, 0x5F, 0xAB, 0x89, 0xAA, 0x29, 0x0A, 0x00, 0x00, 
  0x00, 0x00, 0x00, 0x00, 0x00, 0x00, 0x00, 0x00, 0x00, 0x00, 0x50, 0xF8, 
  0x79, 0x77, 0xD6, 0x9E, 0xBD, 0xFE, 0xBF, 0xFE, 0x33, 0xD6, 0x62, 0x10, 
  0x00, 0x00, 0x00, 0x00, 0x00, 0x00, 0x00, 0x00, 0x00, 0x00, 0x00, 0x40, 
  0x0C, 0xAC, 0x9A, 0x67, 0xB8, 0xFE, 0xCE, 0x7F, 0xDB, 0x99, 0xD3, 0x04, 
  0x89, 0x15, 0x00, 0x00, 0x00, 0x00, 0x00, 0x00, 0x00, 0x00, 0x00, 0x00, 
  0x00, 0x00, 0x08, 0xD2, 0xA5, 0xE2, 0x6D, 0xED, 0x79, 0xFF, 0xFA, 0xD9, 
  0xAD, 0xA5, 0xB6, 0x09, 0x00, 0x00, 0x00, 0x00, 0x00, 0x00, 0x00, 0x00, 
  0x00, 0x00, 0x00, 0x00, 0x01, 0xE4, 0xFF, 0xDF, 0x72, 0x3B, 0xBB, 0xC3, 
  0x9F, 0x6B, 0xBF, 0x62, 0x48, 0x06, 0x00, 0x00, 0x00, 0x00, 0x00, 0x00, 
  0x00, 0x00, 0x00, 0x00, 0x00, 0x00, 0x80, 0x5F, 0xF3, 0xE9, 0xFD, 0x9E, 
  0x5D, 0xDF, 0x6E, 0xBE, 0xFF, 0x47, 0x11, 0x08, 0x00, 0x00, 0x00, 0x00, 
  0x00, 0x00, 0x00, 0x00, 0x00, 0x00, 0x00, 0x00, 0x14, 0xF1, 0x2A, 0xFB, 
  0x67, 0xF5, 0xFF, 0xFF, 0xFF, 0xFF, 0xFF, 0x9F, 0xB6, 0x06, 0x00, 0x00, 
  0x00, 0x00, 0x00, 0x00, 0x00, 0x00, 0x00, 0x00, 0x00, 0x00, 0xD9, 0xFF, 
  0xFF, 0xFF, 0x6F, 0xF2, 0xFF, 0xFF, 0xFF, 0xFF, 0xFF, 0xBB, 0x54, 0x03, 
  0x00, 0x00, 0x00, 0x00, 0x00, 0x00, 0x00, 0x00, 0x00, 0x00, 0x00, 0x00, 
  0xE4, 0xFF, 0xFF, 0xFF, 0xDF, 0xDF, 0xDF, 0xFF, 0xFF, 0xFF, 0xFF, 0xEF, 
  0xA7, 0x02, 0x00, 0x00, 0x00, 0x00, 0x00, 0x00, 0x00, 0x00, 0x00, 0x00, 
  0x00, 0x00, 0xD8, 0xFF, 0xFF, 0xFF, 0xAF, 0xFD, 0x64, 0xFF, 0xFF, 0xFF, 
  0xFF, 0x67, 0x47, 0x00, 0x00, 0x00, 0x00, 0x00, 0x00, 0x00, 0x00, 0x00, 
  0x00, 0x00, 0x00, 0x00, 0x00, 0xFF, 0xFF, 0xFF, 0xBF, 0x73, 0xAE, 0xFF, 
  0xFF, 0xFF, 0xFF, 0x8F, 0xBE, 0x03, 0x00, 0x00, 0x00, 0x00, 0x00, 0x00, 
  0x00, 0x00, 0x00, 0x00, 0x00, 0x00, 0x84, 0xFF, 0xFF, 0xFF, 0xCF, 0x7E, 
  0xBD, 0xFD, 0xFF, 0xFF, 0xFF, 0x2F, 0xFC, 0x02, 0x00, 0x00, 0x00, 0x00, 
  0x00, 0x00, 0x00, 0x00, 0x00, 0x00, 0x00, 0x00, 0x10, 0xF9, 0xFF, 0xFF, 
  0x57, 0x99, 0xFB, 0xFF, 0xEF, 0xFA, 0xB6, 0x5F, 0xE2, 0x01, 0x00, 0x00, 
  0x00, 0x00, 0x00, 0x00, 0x00, 0x00, 0x00, 0x00, 0x00, 0x00, 0x00, 0xFC, 
  0xEF, 0x69, 0xE8, 0x8F, 0x63, 0xFE, 0x96, 0xEA, 0x81, 0xA0, 0xD4, 0x01, 
  0x00, 0x00, 0x00, 0x00, 0x00, 0x00, 0x00, 0x00, 0x00, 0x00, 0x00, 0x00, 
  0x50, 0x92, 0x73, 0x82, 0x54, 0xF6, 0xEE, 0xFF, 0xCC, 0xCA, 0x0F, 0x4B, 
  0x2A, 0x00, 0x00, 0x00, 0x00, 0x00, 0x00, 0x00, 0x00, 0x00, 0x00, 0x00, 
  0x00, 0x00, 0x60, 0xC4, 0xE0, 0x38, 0x72, 0xDE, 0xFD, 0x7F, 0x4D, 0x22, 
  0x67, 0xD7, 0x48, 0x00, 0x00, 0x00, 0x00, 0x00, 0x00, 0x00, 0x00, 0x00, 
  0x00, 0x00, 0x00, 0x00, 0x20, 0x72, 0x0B, 0x89, 0xC4, 0x95, 0xA3, 0xFF, 
  0x98, 0x94, 0x1E, 0x28, 0x25, 0x00, 0x00, 0x00, 0x00, 0x00, 0x00, 0x00, 
  0x00, 0x00, 0x00, 0x00, 0x00, 0x00, 0x00, 0xB9, 0xA6, 0x42, 0x5A, 0x71, 
  0xDD, 0x3F, 0x1A, 0x2C, 0xDE, 0x55, 0x38, 0x00, 0x00, 0x00, 0x00, 0x00, 
  0x00, 0x00, 0x00, 0x00, 0x00, 0x00, 0x00, 0x00, 0x80, 0x78, 0x24, 0x3C, 
  0xA2, 0xDE, 0xEB, 0xBF, 0x71, 0x82, 0x7D, 0x9A, 0x06, 0x00, 0x00, 0x00, 
  0x00, 0x00, 0x00, 0x00, 0x00, 0x00, 0x00, 0x00, 0x00, 0x00, 0x00, 0x4F, 
  0x89, 0x26, 0xEA, 0x59, 0xF8, 0x1F, 0x70, 0x30, 0xF2, 0x39, 0x18, 0x00, 
  0x00, 0x00, 0x00, 0x00, 0x00, 0x00, 0x00, 0x00, 0x00, 0x00, 0x00, 0x00, 
  0x00, 0x9E, 0x29, 0x52, 0x02, 0xAF, 0xFA, 0x5F, 0x72, 0x01, 0xEA, 0x5B, 
  0x05, 0x00, 0x00, 0x00, 0x00, 0x00, 0x00, 0x00, 0x00, 0x00, 0x00, 0x00, 
  0x00, 0x00, 0x00, 0x67, 0x02, 0x2B, 0x91, 0x24, 0xF5, 0x5F, 0xC8, 0x94, 
  0xD0, 0x43, 0x02, 0x00, 0x00, 0x00, 0x00, 0x00, 0x00, 0x00, 0x00, 0x00, 
  0x00, 0x00, 0x00, 0x00, 0x00, 0x0B, 0xA8, 0x87, 0x8C, 0xD5, 0xFF, 0x2F, 
  0xD5, 0x82, 0xA3, 0x27, 0x02, 0x00, 0x00, 0x00, 0x00, 0x00, 0x00, 0x00, 
  0x00, 0x00, 0x00, 0x00, 0x00, 0x00, 0x00, 0x40, 0xA8, 0x45, 0x20, 0x58, 
  0xFF, 0x4F, 0xA0, 0x23, 0x61, 0x5F, 0x01, 0x00, 0x00, 0x00, 0x00, 0x00, 
  0x00, 0x00, 0x00, 0x00, 0x00, 0x00, 0x00, 0x00, 0x00, 0xA8, 0xE0, 0xA1, 
  0x5D, 0xBD, 0xFD, 0x1B, 0x9D, 0x67, 0x84, 0xBE, 0x01, 0x00, 0x00, 0x00, 
  0x00, 0x00, 0x00, 0x00, 0x00, 0x00, 0x00, 0x00, 0x00, 0x00, 0x00, 0x10, 
  0xC6, 0x58, 0x21, 0x80, 0xFC, 0x59, 0x8A, 0x07, 0xB0, 0x02, 0x00, 0x00, 
  0x00, 0x00, 0x00, 0x00, 0x00, 0x00, 0x00, 0x00, 0x00, 0x00, 0x00, 0x00, 
  0x00, 0x00, 0x68, 0x22, 0x88, 0xEE, 0xFF, 0x9B, 0x51, 0x2E, 0x09, 0x40, 
  0x00, 0x00, 0x00, 0x00, 0x00, 0x00, 0x00, 0x00, 0x00, 0x00, 0x00, 0x00, 
  0x00, 0x00, 0x00, 0x00, 0x78, 0x3A, 0x88, 0xE4, 0xFF, 0xB9, 0x19, 0x5E, 
  0x61, 0x00, 0x00, 0x00, 0x00, 0x00, 0x00, 0x00, 0x00, 0x00, 0x00, 0x00, 
  0x00, 0x00, 0x00, 0x00, 0x00, 0x40, 0x72, 0x80, 0x2C, 0xA1, 0xFF, 0x30, 
  0x04, 0x9A, 0x04, 0x1F, 0x00, 0x00, 0x00, 0x00, 0x00, 0x00, 0x00, 0x00, 
  0x00, 0x00, 0x00, 0x00, 0x00, 0x00, 0x00, 0x00, 0x3A, 0x61, 0x6D, 0xF9, 
  0xFF, 0xB2, 0xA1, 0x9D, 0x91, 0x01, 0x00, 0x00, 0x00, 0x00, 0x00, 0x00, 
  0x00, 0x00, 0x00, 0x00, 0x00, 0x00, 0x00, 0x00, 0x00, 0x00, 0xB8, 0x20, 
  0x04, 0xC6, 0xFF, 0xA2, 0x28, 0x78, 0x6C, 0x06, 0x00, 0x00, 0x00, 0x00, 
  0x00, 0x00, 0x00, 0x00, 0x00, 0x00, 0x00, 0x00, 0x00, 0x00, 0x00, 0x00, 
  0x58, 0x88, 0x06, 0x81, 0xBF, 0x64, 0x49, 0x38, 0xB0, 0x03, 0x00, 0x00, 
  0x00, 0x00, 0x00, 0x00, 0x00, 0x00, 0x00, 0x00, 0x00, 0x00, 0x00, 0x00, 
  0x00, 0x00, 0x1C, 0x30, 0x66, 0x64, 0xBE, 0x62, 0x00, 0xF6, 0x0E, 0x00, 
  0x00, 0x00, 0x00, 0x00, 0x00, 0x00, 0x00, 0x00, 0x00, 0x00, 0x00, 0x00, 
  0x00, 0x00, 0x00, 0x00, 0x00, 0x05, 0x26, 0x06, 0x1C, 0xE8, 0x0A, 0xF2, 
  0x22, 0x00, 0x00, 0x00, 0x00, 0x00, 0x00, 0x00, 0x00, 0x00, 0x00, 0x00, 
  0x00, 0x00, 0x00, 0x00, 0x00, 0x00, 0x20, 0x14, 0x86, 0x61, 0x5D, 0x6A, 
  0x90, 0xC0, 0x21, 0x00, 0x00, 0x00, 0x00, 0x00, 0x00, 0x00, 0x00, 0x00, 
  0x00, 0x00, 0x00, 0x00, 0x00, 0x00, 0x00, 0x00, 0x00, 0x46, 0x57, 0x6C, 
  0x26, 0xD0, 0x94, 0xCA, 0x05, 0x00, 0x00, 0x00, 0x00, 0x00, 0x00, 0x00, 
  0x00, 0x00, 0x00, 0x00, 0x00, 0x00, 0x00, 0x00, 0x00, 0x00, 0x00, 0x14, 
  0x83, 0x02, 0x4A, 0xCB, 0x01, 0x90, 0x03, 0x00, 0x00, 0x00, 0x00, 0x00, 
  0x00, 0x00, 0x00, 0x00, 0x00, 0x00, 0x00, 0x00, 0x00, 0x00, 0x00, 0x00, 
  0x00, 0x80, 0x0B, 0xA5, 0x32, 0xC2, 0x81, 0xCB, 0x03, 0x00, 0x00, 0x00, 
  0x00, 0x00, 0x00, 0x00, 0x00, 0x00, 0x00, 0x00, 0x00, 0x00, 0x00, 0x00, 
  0x00, 0x00, 0x00, 0x80, 0x53, 0x80, 0x81, 0xC8, 0x22, 0x80, 0x01, 0x00, 
  0x00, 0x00, 0x00, 0x00, 0x00, 0x00, 0x00, 0x00, 0x00, 0x00, 0x00, 0x00, 
  0x00, 0x00, 0x00, 0x00, 0x00, 0x00, 0x21, 0xC4, 0x81, 0x05, 0x24, 0x00, 
  0x00, 0x00, 0x00, 0x00, 0x00, 0x00, 0x00, 0x00, 0x00, 0x00, 0x00, 0x00, 
  0x00, 0x00, 0x00, 0x00, 0x00, 0x00, 0x00, 0x00, 0x98, 0x22, 0xA3, 0x21, 
  0x88, 0x02, 0x00, 0x00, 0x00, 0x00, 0x00, 0x00, 0x00, 0x00, 0x00, 0x00, 
  0x00, 0x00, 0x00, 0x00, 0x00, 0x00, 0x00, 0x00, 0x00, 0x00, 0x12, 0x40, 
  0x29, 0x4A, 0x08, 0x01, 0x00, 0x00, 0x00, 0x00, 0x00, 0x00, 0x00, 0x00, 
  0x00, 0x00, 0x00, 0x00, 0x00, 0x00, 0x00, 0x00, 0x00, 0x00, 0x00, 0x00, 
  0x40, 0x99, 0x49, 0x20, 0xA1, 0x00, 0x00, 0x00, 0x00, 0x00, 0x00, 0x00, 
  0x00, 0x00, 0x00, 0x00, 0x00, 0x00, 0x00, 0x00, 0x00, 0x00, 0x00, 0x00, 
  0x00, 0x00, 0x00, 0x10, 0x29, 0x82, 0x00, 0x00, 0x00, 0x00, 0x00, 0x00, 
  0x00, 0x00, 0x00, 0x00, 0x00, 0x00, 0x00, 0x00, 0x00, 0x00, 0x00, 0x00, 
  0x00, 0x00, 0x00, 0x00, 0x00, 0x00, 0x21, 0x20, 0x00, 0x00, 0x00, 0x00, 
  0x00, 0x00, 0x00, 0x00, 0x00, 0x00, 0x00, 0x00, 0x00, 0x00, 0x00, 0x00, 
  0x00, 0x00, 0x00, 0x00, 0x00, 0x00, 0x00, 0x00, 0x00, 0x00, 0x00, 0x00, 
  0x00, 0x00, 0x00, 0x00, 0x00, 0x00, 0x00, 0x00, 0x00, 0x00, 0x00, 0x00, 
  0x00, 0x00, 0x00, 0x00, 0x00, 0x00, 0x00, 0x00, 0x00, 0x00, 0x00, 0x00, 
  0x00, 0x00, 0x00, 0x00, 0x00, 0x00, 0x00, 0x00, 0x00, 0x00, 0x00, 0x00, 
  0x00, 0x00, 0x00, 0x00, 0x00, 0x00, 0x00, 0x00, 0x00, 0x00, 0x00, 0x00, 
  0x00, 0x00, 0x00, 0x00, 0x00, 0x00, 0x00, 0x00, 0x00, 0x00, 0x00, 0x00, 
  0x00, 0x00, 0x00, 0x00, 0x00, 0x00, 0x00, 0x00, 0x00, 0x00, 0x00, 0x00, 
  0x00, 0x00, 0x00, 0x00, 0x00, 0x00, 0x00, 0x00, 0x00, 0x00, 0x00, 0x00, 
  0x00, 0x00, 0x00, 0x00, 0x00, 0x00, 0x00, 0x00, 0x00, 0x00, 0x00, 0x00, 
  0x00, 0x00, 0x00, 0x00, 0x00, 0x00, 0x00, 0x00, 0x00, 0x00, 0x00, 0x00, 
  0x00, 0x00, 0x00, 0x00, 0x00, 0x00, 0x00, 0x00, 0x00, 0x00, 0x00, 0x00, 
  0x00, 0x00, 0x00, 0x00, 0x00, 0x00, 0x00, 0x00, 0x00, 0x00, 0x00, 0x00, 
  0x00, 0x00, 0x00, 0x00, 0x00, 0x00, 0x00, 0x00, 0x00, 0x00, 0x00, 0x00, 
  0x00, 0x00, 0x00, 0x00, 0x00, 0x00, 0x00, 0x00, 0x00, 0x00, 0x00, 0x00, 
  0x00, 0x00, 0x00, 0x00, 0x00, 0x00, 0x00, 0x00, 0x00, 0x00, 0x00, 0x00, 
  0x00, 0x00, 0x00, 0x00, 0x00, 0x00, 0x00, 0x00, 0x00, 0x00, 0x00, 0x00, 
  0x00, 0x00, 0x00, 0x00, 0x00, 0x00, 0x00, 0x00, 0x00, 0x00, 0x00, 0x00, 
  0x00, 0x00, 0x00, 0x00, 0x00, 0x00, 0x00, 0x00, 0x00, 0x00, 0x00, 0x00, 
  0x00, 0x00, 0x00, 0x00, 0x00, 0x00, 0x00, 0x00, 0x00, 0x00, 0x00, 0x00, 
  0x00, 0x00, 0x00, 0x00, 0x00, 0x00, 0x00, 0x00, 0x00, 0x00, 0x00, 0x00, 
  0x00, 0x00, 0x00, 0x00, 0x00, 0x00, 0x00, 0x00, 0x00, 0x00, 0x00, 0x00, 
  0x00, 0x00, 0x00, 0x00, 0x00, 0x00, 0x00, 0x00, 0x00, 0x00, 0x00, 0x00, 
  0x00, 0x00, 0x00, 0x00, 0x00, 0x00, 0x00, 0x00, 0x00, 0x00, 0x00, 0x00, 
  0x00, 0x00, 0x00, 0x00, 0x00, 0x00, 0x00, 0x00, 0x00, 0x00, 0x00, 0x00, 
  0x00, 0x00, 0x00, 0x00, 0x00, 0x00, 0x00, 0x00, 0x00, 0x00, 0x00, 0x00, 
  0x00, 0x00, 0x00, 0x00, 0x00, 0x00, 0x00, 0x00, 0x00, 0x00, 0x00, 0x00, 
  0x00, 0x00, 0x00, 0x00, 0x00, 0x00, 0x00, 0x00, 0x00, 0x00, 0x00, 0x00, 
  0x00, 0x00, 0x00, 0x00, 0x00, 0x00, 0x00, 0x00, 0x00, 0x00, 0x00, 0x00, 
  0x00, 0x00, 0x00, 0x00, 0x00, 0x00, 0x00, 0x00, 0x00, 0x00, 0x00, 0x00, 
  0x00, 0x00, 0x00, 0x00, 0x00, 0x00, 0x00, 0x00, 0x00, 0x00, 0x00, 0x00, 
  };
